<?xml version="1.0" encoding="utf-8"?>
<!-- Generator: Adobe Illustrator 24.2.3, SVG Export Plug-In . SVG Version: 6.00 Build 0)  -->
<svg version="1.1" id="Layer_1" xmlns="http://www.w3.org/2000/svg" xmlns:xlink="http://www.w3.org/1999/xlink" x="0px" y="0px"
	 viewBox="0 0 720 720" style="enable-background:new 0 0 720 720;" xml:space="preserve">
<style type="text/css">
	.st0{fill:url(#SVGID_1_);}
	.st1{opacity:0.7;fill:#F1F2F2;}
	.st2{fill:#231F20;}
	.st3{fill:#FEA3D2;}
	.st4{fill:#FECA1E;}
	.st5{fill:#DBB319;}
	.st6{fill:#FD8BD3;}
</style>
<g id="Title">
	<linearGradient id="SVGID_1_" gradientUnits="userSpaceOnUse" x1="360" y1="0" x2="360" y2="720">
		<stop  offset="0" style="stop-color:#07DFAF"/>
		<stop  offset="0.2056" style="stop-color:#07E5C7"/>
		<stop  offset="0.4739" style="stop-color:#08EBE0"/>
		<stop  offset="0.7196" style="stop-color:#08EDE9"/>
		<stop  offset="1" style="stop-color:#08DFDE"/>
	</linearGradient>
	<rect class="st0" width="720" height="720"/>
</g>
<rect x="26.5" y="26.5" class="st1" width="667" height="667"/>
<g>
	<g>
		<g>
			<path class="st2" d="M143,555.5h3.8l8.4,22.2h-4.4l-2.1-5.5H141l-2,5.5h-4.4L143,555.5z M147.9,569.2l-3.1-8.7l-3.2,8.7H147.9z"
				/>
			<path class="st2" d="M178.4,561.4c-0.1-0.1-0.4-0.3-0.8-0.6c-0.4-0.3-0.9-0.5-1.4-0.7c-0.6-0.2-1.2-0.4-1.8-0.6s-1.3-0.2-2-0.2
				c-1.2,0-2.1,0.2-2.7,0.7s-0.9,1.1-0.9,1.8c0,0.5,0.1,0.8,0.3,1.1c0.2,0.3,0.5,0.6,1,0.8s0.9,0.4,1.6,0.6c0.6,0.2,1.4,0.4,2.2,0.6
				c1.1,0.3,2.1,0.6,3,0.9s1.6,0.8,2.3,1.2c0.6,0.5,1.1,1.1,1.4,1.8c0.3,0.7,0.5,1.6,0.5,2.6c0,1.2-0.2,2.2-0.7,3
				c-0.4,0.8-1.1,1.5-1.8,2c-0.8,0.5-1.6,0.9-2.6,1.1s-2,0.4-3.1,0.4c-1.7,0-3.3-0.2-4.9-0.8c-1.6-0.5-3.1-1.2-4.4-2.1l1.9-3.7
				c0.2,0.2,0.5,0.4,1,0.7c0.5,0.3,1.1,0.6,1.7,0.9c0.7,0.3,1.4,0.6,2.2,0.8c0.8,0.2,1.6,0.3,2.5,0.3c2.4,0,3.6-0.8,3.6-2.3
				c0-0.5-0.1-0.9-0.4-1.2c-0.3-0.3-0.7-0.6-1.2-0.9c-0.5-0.2-1.1-0.5-1.8-0.7c-0.7-0.2-1.5-0.4-2.4-0.7c-1.1-0.3-2-0.6-2.8-1
				c-0.8-0.3-1.4-0.8-2-1.2c-0.5-0.5-0.9-1-1.2-1.6c-0.3-0.6-0.4-1.3-0.4-2.2c0-1.1,0.2-2.1,0.6-3c0.4-0.9,1-1.6,1.7-2.2
				c0.7-0.6,1.6-1,2.6-1.3c1-0.3,2-0.5,3.2-0.5c1.6,0,3,0.2,4.3,0.7c1.3,0.5,2.5,1.1,3.4,1.7L178.4,561.4z"/>
			<path class="st2" d="M184.3,577.7v-22.2h4.3v22.2H184.3z"/>
			<path class="st2" d="M211.4,577.7v-14.7l-5.7,10.9h-2.3l-5.7-10.9v14.7h-4.3v-22.2h4.6l6.6,12.6l6.6-12.6h4.6v22.2H211.4z"/>
			<path class="st2" d="M220.3,577.7v-22.2h9.4c1,0,2,0.2,2.8,0.6c0.9,0.4,1.6,1,2.2,1.7c0.6,0.7,1.1,1.5,1.5,2.4
				c0.4,0.9,0.5,1.8,0.5,2.7c0,0.9-0.2,1.8-0.5,2.7c-0.3,0.9-0.8,1.7-1.4,2.4c-0.6,0.7-1.3,1.2-2.2,1.7c-0.9,0.4-1.8,0.6-2.8,0.6
				h-5.3v7.4H220.3z M224.6,566.5h5c0.8,0,1.5-0.3,2-1c0.5-0.6,0.8-1.5,0.8-2.6c0-0.6-0.1-1.1-0.3-1.5s-0.4-0.8-0.7-1.1
				c-0.3-0.3-0.6-0.5-1-0.7c-0.4-0.2-0.7-0.2-1.1-0.2h-4.8V566.5z"/>
			<path class="st2" d="M239.8,577.7v-22.2h4.3V574h11.3v3.8H239.8z"/>
			<path class="st2" d="M273.5,574v3.8H258v-22.2h15.1v3.8h-10.8v5.3h9.3v3.5h-9.3v5.8H273.5z"/>
			<path class="st2" d="M290.7,555.5h3.8l8.4,22.2h-4.4l-2.1-5.5h-7.8l-2,5.5h-4.4L290.7,555.5z M295.6,569.2l-3.1-8.7l-3.2,8.7
				H295.6z"/>
			<path class="st2" d="M305.4,577.7v-22.2h9.4c1,0,2,0.2,2.8,0.6c0.9,0.4,1.6,1,2.2,1.7c0.6,0.7,1.1,1.5,1.5,2.4
				c0.4,0.9,0.5,1.8,0.5,2.7c0,0.9-0.2,1.8-0.5,2.7c-0.3,0.9-0.8,1.7-1.4,2.4c-0.6,0.7-1.3,1.2-2.2,1.7c-0.9,0.4-1.8,0.6-2.8,0.6
				h-5.3v7.4H305.4z M309.7,566.5h5c0.8,0,1.5-0.3,2-1c0.5-0.6,0.8-1.5,0.8-2.6c0-0.6-0.1-1.1-0.3-1.5s-0.4-0.8-0.7-1.1
				c-0.3-0.3-0.6-0.5-1-0.7c-0.4-0.2-0.7-0.2-1.1-0.2h-4.8V566.5z"/>
			<path class="st2" d="M324.8,577.7v-22.2h9.4c1,0,2,0.2,2.8,0.6c0.9,0.4,1.6,1,2.2,1.7c0.6,0.7,1.1,1.5,1.5,2.4
				c0.4,0.9,0.5,1.8,0.5,2.7c0,0.9-0.2,1.8-0.5,2.7c-0.3,0.9-0.8,1.7-1.4,2.4c-0.6,0.7-1.3,1.2-2.2,1.7c-0.9,0.4-1.8,0.6-2.8,0.6
				h-5.3v7.4H324.8z M329.1,566.5h5c0.8,0,1.5-0.3,2-1c0.5-0.6,0.8-1.5,0.8-2.6c0-0.6-0.1-1.1-0.3-1.5s-0.4-0.8-0.7-1.1
				c-0.3-0.3-0.6-0.5-1-0.7c-0.4-0.2-0.7-0.2-1.1-0.2h-4.8V566.5z"/>
			<path class="st2" d="M368.4,559.3h-7.1v18.4H357v-18.4h-7.1v-3.8h18.5V559.3z"/>
			<path class="st2" d="M380.6,577.9c-1.6,0-3.1-0.3-4.4-1s-2.5-1.5-3.4-2.5c-0.9-1.1-1.7-2.3-2.2-3.6c-0.5-1.4-0.8-2.7-0.8-4.2
				c0-1.5,0.3-2.9,0.8-4.3c0.6-1.4,1.3-2.6,2.3-3.6c1-1,2.1-1.9,3.5-2.5c1.3-0.6,2.8-0.9,4.3-0.9c1.6,0,3.1,0.3,4.4,1
				c1.3,0.7,2.5,1.5,3.4,2.6c0.9,1.1,1.7,2.3,2.2,3.6c0.5,1.4,0.8,2.7,0.8,4.1c0,1.5-0.3,2.9-0.8,4.2c-0.5,1.3-1.3,2.5-2.3,3.6
				c-1,1-2.1,1.9-3.4,2.5C383.6,577.6,382.2,577.9,380.6,577.9z M374.2,566.6c0,1,0.1,1.9,0.4,2.8c0.3,0.9,0.7,1.7,1.3,2.4
				c0.6,0.7,1.2,1.2,2,1.7c0.8,0.4,1.7,0.6,2.7,0.6c1,0,2-0.2,2.8-0.6c0.8-0.4,1.5-1,2-1.7c0.6-0.7,1-1.5,1.3-2.4
				c0.3-0.9,0.4-1.8,0.4-2.7c0-1-0.2-1.9-0.5-2.8c-0.3-0.9-0.7-1.7-1.3-2.4s-1.2-1.2-2-1.6c-0.8-0.4-1.7-0.6-2.7-0.6
				c-1,0-2,0.2-2.8,0.6c-0.8,0.4-1.5,1-2,1.7s-1,1.5-1.2,2.4C374.3,564.8,374.2,565.7,374.2,566.6z"/>
			<path class="st2" d="M418.9,559.3h-7.1v18.4h-4.3v-18.4h-7.1v-3.8h18.5V559.3z"/>
			<path class="st2" d="M421.6,577.7v-22.2h9.8c1,0,2,0.2,2.8,0.6c0.9,0.4,1.6,1,2.2,1.7c0.6,0.7,1.1,1.5,1.5,2.4
				c0.4,0.9,0.5,1.8,0.5,2.7c0,1.4-0.4,2.7-1.1,3.9c-0.7,1.2-1.7,2-2.9,2.5l5.1,8.3h-4.8l-4.5-7.4H426v7.4H421.6z M426,566.5h5.4
				c0.4,0,0.8-0.1,1.1-0.3s0.6-0.4,0.9-0.8s0.4-0.7,0.6-1.1s0.2-0.9,0.2-1.4c0-0.5-0.1-1-0.3-1.4s-0.4-0.8-0.7-1.1
				c-0.3-0.3-0.6-0.6-1-0.8c-0.4-0.2-0.7-0.3-1.1-0.3H426V566.5z"/>
			<path class="st2" d="M448.8,555.5h3.8l8.4,22.2h-4.4l-2.1-5.5h-7.8l-2,5.5h-4.4L448.8,555.5z M453.7,569.2l-3.1-8.7l-3.2,8.7
				H453.7z"/>
			<path class="st2" d="M462.1,566.5c0-1.4,0.2-2.7,0.7-4c0.5-1.3,1.2-2.5,2.1-3.5c0.9-1,2.1-1.9,3.4-2.5c1.4-0.6,2.9-1,4.6-1
				c2,0,3.8,0.4,5.3,1.3c1.5,0.9,2.6,2.1,3.3,3.5l-3.3,2.3c-0.3-0.6-0.6-1.2-1.1-1.6c-0.4-0.4-0.9-0.8-1.3-1s-1-0.4-1.5-0.5
				c-0.5-0.1-1-0.2-1.5-0.2c-1.1,0-2,0.2-2.8,0.7c-0.8,0.4-1.5,1-2,1.7s-0.9,1.5-1.2,2.4c-0.3,0.9-0.4,1.8-0.4,2.6
				c0,1,0.2,1.9,0.5,2.8c0.3,0.9,0.8,1.7,1.3,2.4c0.6,0.7,1.3,1.2,2.1,1.7c0.8,0.4,1.7,0.6,2.6,0.6c0.5,0,1-0.1,1.6-0.2
				s1.1-0.3,1.5-0.6c0.5-0.3,0.9-0.6,1.4-1c0.4-0.4,0.8-0.9,1-1.5l3.5,2c-0.4,0.8-0.9,1.6-1.5,2.2c-0.7,0.6-1.4,1.2-2.2,1.6
				c-0.8,0.4-1.7,0.8-2.6,1c-0.9,0.2-1.9,0.3-2.8,0.3c-1.6,0-3-0.3-4.3-1c-1.3-0.7-2.4-1.5-3.4-2.6c-0.9-1.1-1.7-2.3-2.2-3.7
				S462.1,567.9,462.1,566.5z"/>
			<path class="st2" d="M484.9,577.7v-22.2h4.3v10.5l9.3-10.6h4.8l-8.5,9.8l9,12.3H499l-6.9-9.6l-2.8,3v6.6H484.9z"/>
			<path class="st2" d="M519.6,555.5h3.8l8.4,22.2h-4.4l-2.1-5.5h-7.8l-2,5.5h-4.4L519.6,555.5z M524.6,569.2l-3.1-8.7l-3.2,8.7
				H524.6z"/>
			<path class="st2" d="M538.6,563.5v14.2h-4.3v-22.2h3.3l11.6,14.6v-14.5h4.3v22.2H550L538.6,563.5z"/>
			<path class="st2" d="M558.2,577.7v-22.2h8.1c1.8,0,3.4,0.3,4.8,0.9c1.4,0.6,2.5,1.4,3.4,2.4c0.9,1,1.6,2.2,2.1,3.5
				c0.5,1.3,0.7,2.8,0.7,4.3c0,1.7-0.3,3.2-0.8,4.6c-0.5,1.4-1.2,2.5-2.2,3.5c-1,1-2.1,1.7-3.5,2.3c-1.3,0.5-2.9,0.8-4.5,0.8H558.2z
				 M572.8,566.6c0-1.1-0.1-2-0.4-2.9s-0.7-1.7-1.3-2.3c-0.6-0.6-1.3-1.1-2.1-1.5c-0.8-0.4-1.8-0.5-2.8-0.5h-3.8V574h3.8
				c1.1,0,2-0.2,2.8-0.6c0.8-0.4,1.5-0.9,2.1-1.5c0.6-0.7,1-1.4,1.3-2.3C572.7,568.6,572.8,567.7,572.8,566.6z"/>
			<path class="st2" d="M152.5,604c0-1.4,0.2-2.7,0.7-4c0.5-1.3,1.2-2.5,2.1-3.5c0.9-1,2.1-1.9,3.4-2.5c1.4-0.6,2.9-1,4.6-1
				c2,0,3.8,0.4,5.3,1.3c1.5,0.9,2.6,2.1,3.3,3.5l-3.3,2.3c-0.3-0.6-0.6-1.2-1.1-1.6c-0.4-0.4-0.9-0.8-1.3-1c-0.5-0.2-1-0.4-1.5-0.5
				c-0.5-0.1-1-0.2-1.5-0.2c-1.1,0-2,0.2-2.8,0.7c-0.8,0.4-1.5,1-2,1.7c-0.5,0.7-0.9,1.5-1.2,2.4c-0.3,0.9-0.4,1.8-0.4,2.6
				c0,1,0.2,1.9,0.5,2.8c0.3,0.9,0.8,1.7,1.3,2.4c0.6,0.7,1.3,1.2,2.1,1.7c0.8,0.4,1.7,0.6,2.6,0.6c0.5,0,1-0.1,1.6-0.2
				c0.5-0.1,1.1-0.3,1.5-0.6c0.5-0.3,0.9-0.6,1.4-1c0.4-0.4,0.8-0.9,1-1.5l3.5,2c-0.4,0.8-0.9,1.6-1.5,2.2s-1.4,1.2-2.2,1.6
				c-0.8,0.4-1.7,0.8-2.6,1c-0.9,0.2-1.9,0.3-2.8,0.3c-1.6,0-3-0.3-4.3-1c-1.3-0.7-2.4-1.5-3.4-2.6s-1.7-2.3-2.2-3.7
				C152.8,606.8,152.5,605.4,152.5,604z"/>
			<path class="st2" d="M184.8,615.4c-1.6,0-3.1-0.3-4.4-1s-2.5-1.5-3.4-2.5s-1.7-2.3-2.2-3.6c-0.5-1.4-0.8-2.7-0.8-4.2
				c0-1.5,0.3-2.9,0.8-4.3c0.6-1.4,1.3-2.6,2.3-3.6c1-1,2.1-1.9,3.5-2.5c1.3-0.6,2.8-0.9,4.3-0.9c1.6,0,3.1,0.3,4.4,1
				c1.3,0.7,2.5,1.5,3.4,2.6c0.9,1.1,1.7,2.3,2.2,3.6c0.5,1.4,0.8,2.7,0.8,4.1c0,1.5-0.3,2.9-0.8,4.2s-1.3,2.5-2.3,3.6
				c-1,1-2.1,1.9-3.4,2.5C187.8,615.1,186.3,615.4,184.8,615.4z M178.3,604.2c0,1,0.1,1.9,0.4,2.8c0.3,0.9,0.7,1.7,1.3,2.4
				c0.6,0.7,1.2,1.2,2,1.7c0.8,0.4,1.7,0.6,2.7,0.6c1,0,2-0.2,2.8-0.6c0.8-0.4,1.5-1,2-1.7c0.6-0.7,1-1.5,1.3-2.4
				c0.3-0.9,0.4-1.8,0.4-2.7c0-1-0.2-1.9-0.5-2.8c-0.3-0.9-0.7-1.7-1.3-2.4s-1.2-1.2-2-1.6c-0.8-0.4-1.7-0.6-2.7-0.6
				c-1,0-2,0.2-2.8,0.6c-0.8,0.4-1.5,1-2,1.7s-1,1.5-1.2,2.4S178.3,603.2,178.3,604.2z"/>
			<path class="st2" d="M203.3,601v14.2h-4.3v-22.2h3.3l11.6,14.6v-14.5h4.3v22.2h-3.5L203.3,601z"/>
			<path class="st2" d="M239.4,596.8h-7.1v18.4H228v-18.4h-7.1v-3.8h18.5V596.8z"/>
			<path class="st2" d="M242.2,615.3v-22.2h9.8c1,0,2,0.2,2.8,0.6c0.9,0.4,1.6,1,2.2,1.7c0.6,0.7,1.1,1.5,1.5,2.4
				c0.4,0.9,0.5,1.8,0.5,2.7c0,1.4-0.4,2.7-1.1,3.9c-0.7,1.2-1.7,2-2.9,2.5l5.1,8.3h-4.8l-4.5-7.4h-4.3v7.4H242.2z M246.5,604h5.4
				c0.4,0,0.8-0.1,1.1-0.3c0.3-0.2,0.6-0.4,0.9-0.8c0.3-0.3,0.4-0.7,0.6-1.1c0.1-0.4,0.2-0.9,0.2-1.4c0-0.5-0.1-1-0.2-1.4
				c-0.2-0.4-0.4-0.8-0.7-1.1c-0.3-0.3-0.6-0.6-1-0.8c-0.4-0.2-0.7-0.3-1.1-0.3h-5.2V604z"/>
			<path class="st2" d="M272.4,615.4c-1.6,0-3.1-0.3-4.4-1s-2.5-1.5-3.4-2.5s-1.7-2.3-2.2-3.6c-0.5-1.4-0.8-2.7-0.8-4.2
				c0-1.5,0.3-2.9,0.8-4.3c0.6-1.4,1.3-2.6,2.3-3.6c1-1,2.1-1.9,3.5-2.5c1.3-0.6,2.8-0.9,4.3-0.9c1.6,0,3.1,0.3,4.4,1
				c1.3,0.7,2.5,1.5,3.4,2.6c0.9,1.1,1.7,2.3,2.2,3.6c0.5,1.4,0.8,2.7,0.8,4.1c0,1.5-0.3,2.9-0.8,4.2s-1.3,2.5-2.3,3.6
				c-1,1-2.1,1.9-3.4,2.5C275.4,615.1,274,615.4,272.4,615.4z M266,604.2c0,1,0.1,1.9,0.4,2.8c0.3,0.9,0.7,1.7,1.3,2.4
				c0.6,0.7,1.2,1.2,2,1.7c0.8,0.4,1.7,0.6,2.7,0.6c1,0,2-0.2,2.8-0.6c0.8-0.4,1.5-1,2-1.7c0.6-0.7,1-1.5,1.3-2.4
				c0.3-0.9,0.4-1.8,0.4-2.7c0-1-0.2-1.9-0.5-2.8c-0.3-0.9-0.7-1.7-1.3-2.4s-1.2-1.2-2-1.6c-0.8-0.4-1.7-0.6-2.7-0.6
				c-1,0-2,0.2-2.8,0.6c-0.8,0.4-1.5,1-2,1.7s-1,1.5-1.2,2.4S266,603.2,266,604.2z"/>
			<path class="st2" d="M286.6,615.3v-22.2h4.3v18.4h11.3v3.8H286.6z"/>
			<path class="st2" d="M314.8,593.1l5.5,10.7l5.6-10.7h4.7l-8.1,14.4v7.8h-4.3v-7.8l-8-14.4H314.8z"/>
			<path class="st2" d="M342.4,615.4c-1.6,0-3.1-0.3-4.4-1s-2.5-1.5-3.4-2.5s-1.7-2.3-2.2-3.6c-0.5-1.4-0.8-2.7-0.8-4.2
				c0-1.5,0.3-2.9,0.8-4.3c0.6-1.4,1.3-2.6,2.3-3.6c1-1,2.1-1.9,3.5-2.5c1.3-0.6,2.8-0.9,4.3-0.9c1.6,0,3.1,0.3,4.4,1
				c1.3,0.7,2.5,1.5,3.4,2.6c0.9,1.1,1.7,2.3,2.2,3.6c0.5,1.4,0.8,2.7,0.8,4.1c0,1.5-0.3,2.9-0.8,4.2s-1.3,2.5-2.3,3.6
				c-1,1-2.1,1.9-3.4,2.5C345.5,615.1,344,615.4,342.4,615.4z M336,604.2c0,1,0.1,1.9,0.4,2.8c0.3,0.9,0.7,1.7,1.3,2.4
				c0.6,0.7,1.2,1.2,2,1.7c0.8,0.4,1.7,0.6,2.7,0.6c1,0,2-0.2,2.8-0.6c0.8-0.4,1.5-1,2-1.7c0.6-0.7,1-1.5,1.3-2.4
				c0.3-0.9,0.4-1.8,0.4-2.7c0-1-0.2-1.9-0.5-2.8c-0.3-0.9-0.7-1.7-1.3-2.4s-1.2-1.2-2-1.6c-0.8-0.4-1.7-0.6-2.7-0.6
				c-1,0-2,0.2-2.8,0.6c-0.8,0.4-1.5,1-2,1.7s-1,1.5-1.2,2.4S336,603.2,336,604.2z"/>
			<path class="st2" d="M366,611.6c1,0,1.9-0.2,2.6-0.6s1.3-1,1.7-1.6c0.4-0.7,0.7-1.4,0.9-2.3c0.2-0.9,0.3-1.8,0.3-2.7v-11.3h4.3
				v11.3c0,1.5-0.2,3-0.5,4.3c-0.4,1.3-0.9,2.5-1.7,3.5c-0.8,1-1.8,1.8-3,2.4c-1.2,0.6-2.7,0.9-4.4,0.9c-1.8,0-3.3-0.3-4.5-0.9
				c-1.2-0.6-2.2-1.4-3-2.4c-0.8-1-1.3-2.2-1.7-3.5c-0.3-1.3-0.5-2.7-0.5-4.2v-11.3h4.3v11.3c0,0.9,0.1,1.8,0.3,2.7
				c0.2,0.9,0.5,1.6,0.9,2.3c0.4,0.7,1,1.2,1.7,1.6S365,611.6,366,611.6z"/>
			<path class="st2" d="M380.1,615.3v-22.2h9.8c1,0,2,0.2,2.8,0.6c0.9,0.4,1.6,1,2.2,1.7c0.6,0.7,1.1,1.5,1.5,2.4
				c0.4,0.9,0.5,1.8,0.5,2.7c0,1.4-0.4,2.7-1.1,3.9c-0.7,1.2-1.7,2-2.9,2.5l5.1,8.3h-4.8l-4.5-7.4h-4.3v7.4H380.1z M384.4,604h5.4
				c0.4,0,0.8-0.1,1.1-0.3s0.6-0.4,0.9-0.8s0.4-0.7,0.6-1.1s0.2-0.9,0.2-1.4c0-0.5-0.1-1-0.3-1.4s-0.4-0.8-0.7-1.1
				c-0.3-0.3-0.6-0.6-1-0.8c-0.4-0.2-0.7-0.3-1.1-0.3h-5.2V604z"/>
			<path class="st2" d="M408.3,615.3v-22.2h14.9v3.8h-10.6v5.7h8.8v3.5h-8.8v9.2H408.3z"/>
			<path class="st2" d="M426.3,615.3v-22.2h4.3v22.2H426.3z"/>
			<path class="st2" d="M439.5,601v14.2h-4.3v-22.2h3.3l11.6,14.6v-14.5h4.3v22.2H451L439.5,601z"/>
			<path class="st2" d="M465.4,593.1h3.8l8.4,22.2h-4.4l-2.1-5.5h-7.8l-2,5.5h-4.4L465.4,593.1z M470.4,606.7l-3.1-8.7l-3.2,8.7
				H470.4z"/>
			<path class="st2" d="M484.4,601v14.2h-4.3v-22.2h3.3l11.6,14.6v-14.5h4.3v22.2h-3.5L484.4,601z"/>
			<path class="st2" d="M502.6,604c0-1.4,0.2-2.7,0.7-4c0.5-1.3,1.2-2.5,2.1-3.5c0.9-1,2.1-1.9,3.4-2.5c1.4-0.6,2.9-1,4.6-1
				c2,0,3.8,0.4,5.3,1.3c1.5,0.9,2.6,2.1,3.3,3.5l-3.3,2.3c-0.3-0.6-0.6-1.2-1.1-1.6c-0.4-0.4-0.9-0.8-1.3-1s-1-0.4-1.5-0.5
				c-0.5-0.1-1-0.2-1.5-0.2c-1.1,0-2,0.2-2.8,0.7c-0.8,0.4-1.5,1-2,1.7s-0.9,1.5-1.2,2.4c-0.3,0.9-0.4,1.8-0.4,2.6
				c0,1,0.2,1.9,0.5,2.8c0.3,0.9,0.8,1.7,1.3,2.4c0.6,0.7,1.3,1.2,2.1,1.7c0.8,0.4,1.7,0.6,2.6,0.6c0.5,0,1-0.1,1.6-0.2
				s1.1-0.3,1.5-0.6c0.5-0.3,0.9-0.6,1.4-1c0.4-0.4,0.8-0.9,1-1.5l3.5,2c-0.4,0.8-0.9,1.6-1.5,2.2c-0.7,0.6-1.4,1.2-2.2,1.6
				c-0.8,0.4-1.7,0.8-2.6,1c-0.9,0.2-1.9,0.3-2.8,0.3c-1.6,0-3-0.3-4.3-1c-1.3-0.7-2.4-1.5-3.4-2.6c-0.9-1.1-1.7-2.3-2.2-3.7
				S502.6,605.4,502.6,604z"/>
			<path class="st2" d="M540.8,611.5v3.8h-15.4v-22.2h15.1v3.8h-10.8v5.3h9.3v3.5h-9.3v5.8H540.8z"/>
			<path class="st2" d="M557.4,598.9c-0.1-0.1-0.4-0.3-0.8-0.6c-0.4-0.3-0.9-0.5-1.4-0.7c-0.6-0.2-1.2-0.4-1.8-0.6
				c-0.6-0.2-1.3-0.2-2-0.2c-1.2,0-2.1,0.2-2.7,0.7c-0.6,0.4-0.9,1.1-0.9,1.8c0,0.5,0.1,0.8,0.3,1.1c0.2,0.3,0.5,0.6,1,0.8
				s0.9,0.4,1.6,0.6s1.4,0.4,2.2,0.6c1.1,0.3,2.1,0.6,3,0.9s1.6,0.8,2.3,1.2c0.6,0.5,1.1,1.1,1.4,1.8c0.3,0.7,0.5,1.6,0.5,2.6
				c0,1.2-0.2,2.2-0.7,3c-0.4,0.8-1.1,1.5-1.8,2c-0.8,0.5-1.6,0.9-2.6,1.1c-1,0.2-2,0.4-3.1,0.4c-1.7,0-3.3-0.2-4.9-0.8
				c-1.6-0.5-3.1-1.2-4.4-2.1l1.9-3.7c0.2,0.2,0.5,0.4,1,0.7c0.5,0.3,1.1,0.6,1.7,0.9c0.7,0.3,1.4,0.6,2.2,0.8
				c0.8,0.2,1.6,0.3,2.5,0.3c2.4,0,3.6-0.8,3.6-2.3c0-0.5-0.1-0.9-0.4-1.2c-0.3-0.3-0.7-0.6-1.2-0.9c-0.5-0.2-1.1-0.5-1.8-0.7
				c-0.7-0.2-1.5-0.4-2.4-0.7c-1.1-0.3-2-0.6-2.8-1c-0.8-0.3-1.4-0.8-2-1.2c-0.5-0.5-0.9-1-1.2-1.6c-0.3-0.6-0.4-1.3-0.4-2.2
				c0-1.1,0.2-2.1,0.6-3s1-1.6,1.7-2.2c0.7-0.6,1.6-1,2.6-1.3c1-0.3,2-0.5,3.2-0.5c1.6,0,3,0.2,4.3,0.7c1.3,0.5,2.5,1.1,3.4,1.7
				L557.4,598.9z"/>
		</g>
	</g>
	<g>
		<g>
			<path class="st3" d="M383.9,160.9c20.3,4.1,39.2,11.8,56.8,22.7c12.3,7.6,23.3,16.6,33,27.3c12.9,14.2,22.9,30.1,29.5,48.1
				c1.1,2.9,2,5.9,3,8.9c0.5,1.6,1.1,2,2.9,1.8c7-1,13.5-3.2,20-5.9c1.9-0.8,2.1-1.2,0.5-2.7c-5.3-4.7-9.6-10.1-11.7-17
				c-3.5-11.6,1.4-23.9,12-28.5c12.5-5.5,29.9-1.2,33.8,14.3c2.6,10.2-0.3,19-7.1,26.7c-1.6,1.8-3.3,3.4-5.1,4.9
				c-1.1,0.9-1.1,1.5,0.2,2.1c7.8,3.3,15.7,6.1,24.3,6.5c2.3,0.1,2.8,0.8,2.8,3c0,7.7,0.1,7.8-7.7,6.4c-9.6-1.7-18.9-4.6-27.5-9.2
				c-2.2-1.2-3.8-1.1-6,0c-8.2,4.3-16.9,7.3-26.1,8.7c-1.7,0.3-2.5,0.8-2,2.9c2.6,12.3,3.1,24.7,2.5,37.2c-0.7,12-2.8,23.9-5.8,35.6
				c-5,19.6-12.4,38.3-21.4,56.3c-8.1,16.4-17.4,32.1-27.9,47.1c-1.3,1.8-2.8,2.6-5.2,2.6c-20-0.1-39.9-0.1-59.9,0
				c-2.8,0-3.9-0.7-3.7-3.6c0.2-4.8,0-9.6,0.1-14.4c0-1.8-0.4-2.8-2.4-2.6c-13.7,1.3-27.4,1-41.2,1.6c-8.6,0.4-17.3,0.3-26-0.1
				c-2.3-0.1-2.7,0.6-3.1,2.3c-1,4.8-2.1,9.6-2.9,14.4c-0.3,1.9-1.1,2.4-2.9,2.4c-20.6,0-41.1,0-61.7,0c-2.3,0-2.8-0.9-2.8-3
				c0.1-9.2,0-18.5,0.1-27.7c0-2.3-0.7-3.4-2.9-4.4c-17.4-7.8-32.9-18.4-45.7-32.6c-6.7-7.4-12.4-15.7-16.9-24.7
				c-1-2-2.3-3.2-4.5-3.9c-7.5-2.4-14.9-5-22.4-7.4c-2-0.6-2.9-1.6-3.2-3.6c-2-12-4-23.9-6-35.9c-0.9-5.3-1.6-10.6-2.7-15.9
				c-0.4-2.1,0.1-3,2.1-3.6c7.6-2.4,15-5.1,22.6-7.4c2.3-0.7,2.4-2.5,2.6-4.1c1.1-7.7,3.2-15.2,5.6-22.5c5.9-17.4,15-33,26.9-47
				c1.4-1.6,1.6-2.8,0.5-4.7c-9.1-15.1-16.1-31-20.6-48c-1.2-4.4-1.2-4.6,3.1-5.6c25.7-5.7,49.3-1.2,70.1,15.4
				c0.9,0.7,1.5,1,2.6,0.5c13.5-6.4,27.7-11,42.3-14.2c2,5,5.2,9.3,8.3,13.6c-5.1,1.2-10.3,2.3-15.4,3.7c-8.3,2.3-6.9,0.8-4.4,9
				c0.6,1.9,1.9,2.4,3.7,1.8c2.5-0.8,5-1.6,7.6-2.2c6.2-1.4,12.4-2.7,18.5-4c3.4-0.4,6.9-0.9,10.3-1.3c9.3-0.4,18.6-0.4,27.9,0l0,0
				c0.5,0,1,0,1.4,0.1c2.5,0.9,5.1,0.7,7.7,1.2c0.4,0.2,0.7,0.4,1.1,0.4c7.4,0.9,14.6,2.5,21.8,4.4c7.5,2,7.4,2.1,9.7-5.2
				c0.6-2-0.1-2.7-1.7-3.2c-6.5-1.8-13-3.6-19.6-4.9C378.8,169.8,381.7,165.6,383.9,160.9z M540.8,223c-9.5,0-15.7,5.9-13.9,16.8
				c1.2,7.8,6.8,12.6,12.7,16.9c1.3,1,2.4,0.1,3.5-0.7c3.4-2.4,6.4-5.3,8.7-8.7c3.7-5.5,4.7-11.4,1.8-17.6
				C551,224.4,546.2,223.1,540.8,223z M212.3,270.4c0,8,6.5,14.4,14.5,14.3c7.8-0.1,14.3-6.5,14.3-14.3c0-7.9-6.6-14.4-14.6-14.4
				C218.6,256.2,212.2,262.6,212.3,270.4z"/>
			<path class="st4" d="M307.3,174c-3.1-4.3-6.3-8.6-8.3-13.6c-4.1-11.1-4.7-22.3-0.2-33.4c6.7-16.8,19.3-26.9,37.3-29.1
				c17.5-2.1,31.9,4.3,42.4,18.5c9.4,12.8,11.1,27,6.2,42c-0.3,0.8-0.5,1.7-0.8,2.5c-2.2,4.7-5.1,8.9-8.1,13
				c-3.5,3.1-6.6,6.6-11.1,8.4c-2.5-0.5-5.2-0.3-7.7-1.2c0.3-0.7,1-0.9,1.6-1.2c16.2-7.5,26.4-25.4,23-43.7
				c-4.1-22.5-25-37.1-47.5-33c-18,3.2-31.6,18.3-33.1,36.5c-1.1,13.2,3.4,24.5,13.1,33.5c3.9,3.5,8.2,6.7,13.5,7.9
				c-3.4,0.4-6.9,0.9-10.3,1.3C313.8,179.9,310.4,177.1,307.3,174z"/>
			<path class="st5" d="M327.6,181.1c-5.4-1.1-9.7-4.3-13.5-7.9c-9.8-9-14.2-20.3-13.1-33.5c1.5-18.2,15.2-33.2,33.1-36.5
				c22.5-4,43.5,10.6,47.5,33c3.3,18.3-6.8,36.2-23,43.7c-0.6,0.3-1.3,0.5-1.6,1.2c-0.5,0-1,0-1.4-0.1c0,0,0,0,0,0
				C346.2,180.7,336.9,180.7,327.6,181.1z M306.2,142.9c-0.9,19.5,15.5,35.8,35.3,35.9c19.2,0.1,35.3-16,35.6-34.7
				c0.3-20.3-16.5-36-35.1-36.2C322.5,107.5,305.4,124.2,306.2,142.9z"/>
			<path class="st2" d="M212.3,270.4c0-7.8,6.4-14.3,14.2-14.4c7.9-0.1,14.6,6.5,14.6,14.4c0,7.8-6.4,14.2-14.3,14.3
				C218.7,284.9,212.3,278.5,212.3,270.4z"/>
			<g>
				<path class="st6" d="M364.7,182.4c4.5-1.8,7.7-5.3,11.1-8.4c6.6,1.3,13.1,3,19.6,4.9c1.6,0.5,2.4,1.2,1.7,3.2
					c-2.3,7.3-2.2,7.2-9.7,5.2c-7.2-1.9-14.4-3.6-21.8-4.4C365.3,182.8,365,182.5,364.7,182.4z"/>
				<path class="st6" d="M307.3,174c3.1,3.1,6.5,5.9,10.1,8.4c-6.2,1.3-12.4,2.6-18.5,4c-2.6,0.6-5.1,1.4-7.6,2.2
					c-1.8,0.5-3.1,0-3.7-1.8c-2.5-8.2-3.9-6.7,4.4-9C297,176.3,302.1,175.2,307.3,174z"/>
			</g>
			<path class="st4" d="M355.5,181.1C355.5,181.1,355.5,181.1,355.5,181.1C355.5,181.2,355.5,181.1,355.5,181.1z"/>
			<path class="st4" d="M306.2,142.9c-0.8-18.7,16.3-35.4,35.8-35.1c18.6,0.3,35.4,15.9,35.1,36.2c-0.3,18.8-16.4,34.8-35.6,34.7
				C321.7,178.7,305.3,162.4,306.2,142.9z"/>
		</g>
		<g>
			<path class="st3" d="M71.7,503.7c3.7-1.6,7.4-4.7,7.4-10.8v-0.1c0-3-1.1-5.5-3-7.4c-2.7-2.6-6.8-4.1-12.2-4.1H44.1v46.5h20.7
				c10.2,0,16.9-4.7,16.9-12.7V515C81.6,508.6,77.2,505.4,71.7,503.7z M49.3,486h14.1c6.6,0,10.3,3,10.3,7.6v0.1
				c0,5.4-4.4,8.3-10.7,8.3H49.3V486z M76.3,514.8c0,5.2-4.4,8.3-11.4,8.3H49.3v-16.4H64c8.1,0,12.4,2.9,12.4,8V514.8z"/>
			<path class="st3" d="M124.8,508.3c0,10.2-5.4,15.3-14,15.3c-8.8,0-14.2-5.6-14.2-15.7v-26.7h-5.2v27c0,13.2,7.8,20.2,19.3,20.2
				c11.6,0,19.4-7,19.4-20.6v-26.6h-5.2V508.3z"/>
			<path class="st3" d="M158.6,481.3h-16.1v46.5h16.1c14.6,0,24.7-10.2,24.7-23.3v-0.1C183.4,491.3,173.3,481.3,158.6,481.3z
				 M177.9,504.7c0,10.3-7.5,18.3-19.3,18.3h-10.9v-36.8h10.9c11.8,0,19.3,8.1,19.3,18.4V504.7z"/>
			<path class="st3" d="M215.5,507.7h14.1v11.6c-3.2,2.6-8.1,4.6-13.4,4.6c-11.3,0-18.4-8.2-18.4-19.3v-0.1
				c0-10.4,7.4-19.1,17.7-19.1c6.6,0,10.6,2.2,14.1,5.3l3.4-4c-4.6-3.9-9.5-6.2-17.3-6.2c-13.9,0-23.3,11.3-23.3,24v0.1
				c0,13.3,9,23.9,23.6,23.9c7.8,0,14.3-3.3,18.7-7.1v-18.5h-19.2V507.7z"/>
			<polygon class="st3" points="251.8,506.7 277.2,506.7 277.2,502 251.8,502 251.8,486.1 280.2,486.1 280.2,481.3 246.5,481.3 
				246.5,527.8 280.5,527.8 280.5,523 251.8,523 			"/>
			<polygon class="st3" points="287.7,486.1 303.4,486.1 303.4,527.8 308.7,527.8 308.7,486.1 324.3,486.1 324.3,481.3 287.7,481.3 
							"/>
			<polygon class="st6" points="349.7,490.7 363.9,490.7 363.9,527.8 374.1,527.8 374.1,490.7 388.3,490.7 388.3,481.3 349.7,481.3 
							"/>
			<path class="st6" d="M434.9,496.8v-0.1c0-4.4-1.4-8-4-10.6c-3.1-3.1-7.6-4.7-13.5-4.7h-21.3v46.5h10.2v-14.9h8l10,14.9h12
				l-11.4-16.6C430.9,509,434.9,504.3,434.9,496.8z M424.5,497.3c0,3.9-2.9,6.6-7.8,6.6h-10.4v-13.4h10.2c5,0,8,2.3,8,6.6V497.3z"/>
			<path class="st6" d="M460.1,481l-19.9,46.8h10.4l4.3-10.4h19.7l4.3,10.4h10.7L469.5,481H460.1z M458.5,508.3l6.2-15.1l6.2,15.1
				H458.5z"/>
			<path class="st6" d="M515.8,519.2c-8,0-13.5-6.6-13.5-14.6v-0.1c0-8,5.6-14.5,13.5-14.5c4.7,0,8.3,2,11.9,5.3l6.5-7.5
				c-4.3-4.3-9.6-7.2-18.3-7.2c-14.3,0-24.2,10.8-24.2,24v0.1c0,13.4,10.2,23.9,23.8,23.9c9,0,14.3-3.2,19.1-8.3l-6.5-6.6
				C524.3,517,521.1,519.2,515.8,519.2z"/>
			<path class="st6" d="M664.5,511.2c5.9-2.2,10-6.9,10-14.4v-0.1c0-4.4-1.4-8-4-10.6c-3.1-3.1-7.6-4.7-13.5-4.7h-21.3v46.5h10.2
				v-14.9h8l10,14.9h12L664.5,511.2z M664.1,497.3c0,3.9-2.9,6.6-7.8,6.6h-10.4v-13.4h10.2c5,0,8,2.3,8,6.6V497.3z"/>
			<polygon class="st6" points="601.4,508.9 623.3,508.9 623.3,499.8 601.4,499.8 601.4,490.4 626.3,490.4 626.3,481.3 606.8,481.3 
				591.2,501.9 591.2,527.8 626.6,527.8 626.6,518.7 601.4,518.7 			"/>
			<polygon class="st6" points="593.5,495.3 596.4,491.5 596.4,491.5 609.5,474.5 613.1,476.7 614.3,459.2 598,467.3 601.4,469.6 
				589,485.7 588,485 583.7,481.7 583.2,481.3 583.1,481.3 575.7,475.5 569.3,482.4 552.9,500 552.9,481.3 542.7,481.3 542.7,527.8 
				552.9,527.8 552.9,513.6 558.3,508 572.7,527.8 585,527.8 565.2,501 577.1,488.6 577.2,488.6 578.2,489.3 590.7,498.9 
				591.2,498.3 591.2,498.3 			"/>
		</g>
	</g>
</g>
</svg>
